<?xml version="1.0" encoding="UTF-8" standalone="no"?>
<!-- Generator: Adobe Illustrator 23.0.2, SVG Export Plug-In . SVG Version: 6.00 Build 0)  -->

<svg
   version="1.1"
   id="Layer_1"
   x="0px"
   y="0px"
   viewBox="0 0 332.02 100.4"
   style="enable-background:new 0 0 332.02 100.4;"
   xml:space="preserve"
   sodipodi:docname="TheBigPhone-logo1.svg"
   inkscape:version="1.2.1 (9c6d41e410, 2022-07-14)"
   xmlns:inkscape="http://www.inkscape.org/namespaces/inkscape"
   xmlns:sodipodi="http://sodipodi.sourceforge.net/DTD/sodipodi-0.dtd"
   xmlns="http://www.w3.org/2000/svg"
   xmlns:svg="http://www.w3.org/2000/svg"><defs
   id="defs37"><rect
     x="21.133465"
     y="20.364976"
     width="31.508076"
     height="61.863417"
     id="rect249" /><rect
     x="21.133465"
     y="20.364976"
     width="31.508076"
     height="61.863417"
     id="rect257" /><rect
     x="21.133465"
     y="20.364976"
     width="31.508076"
     height="61.863417"
     id="rect263" /><rect
     x="21.133465"
     y="20.364976"
     width="31.508076"
     height="61.863417"
     id="rect352" /><rect
     x="21.133465"
     y="20.364976"
     width="31.508076"
     height="61.863417"
     id="rect358" /><rect
     x="21.133465"
     y="20.364976"
     width="31.508076"
     height="61.863417"
     id="rect364" /><rect
     x="21.133465"
     y="20.364976"
     width="31.508076"
     height="61.863417"
     id="rect370" /><rect
     x="21.133465"
     y="20.364976"
     width="31.508076"
     height="61.863417"
     id="rect376" /><rect
     x="21.133465"
     y="20.364976"
     width="31.508076"
     height="61.863417"
     id="rect382" /><rect
     x="21.133465"
     y="20.364976"
     width="31.508076"
     height="61.863417"
     id="rect388" /><rect
     x="21.133465"
     y="20.364976"
     width="31.508076"
     height="61.863417"
     id="rect394" /></defs><sodipodi:namedview
   id="namedview35"
   pagecolor="#ffffff"
   bordercolor="#000000"
   borderopacity="0.25"
   inkscape:showpageshadow="2"
   inkscape:pageopacity="0.0"
   inkscape:pagecheckerboard="0"
   inkscape:deskcolor="#d1d1d1"
   showgrid="false"
   inkscape:zoom="2.6025074"
   inkscape:cx="168.10711"
   inkscape:cy="37.271748"
   inkscape:window-width="1366"
   inkscape:window-height="705"
   inkscape:window-x="-8"
   inkscape:window-y="-8"
   inkscape:window-maximized="1"
   inkscape:current-layer="Layer_1" />
<style
   type="text/css"
   id="style2">
	.st0{fill:#FFFFFF;}
	.st1{fill:none;stroke:#000000;stroke-width:3.5;stroke-miterlimit:10;}
	.st2{fill:none;stroke:#FFFFFF;stroke-width:2.4487;stroke-miterlimit:10;}
</style>
<g
   id="g8">
	<path
   class="st0"
   d="M323.36,78.86c0,6.73-5.51,12.24-12.24,12.24H20.29c-6.73,0-12.24-5.51-12.24-12.24v-59.6   c0-6.73,5.51-12.24,12.24-12.24h290.83c6.73,0,12.24,5.51,12.24,12.24V78.86z"
   id="path4" />
	<path
   class="st1"
   d="M323.36,78.86c0,6.73-5.51,12.24-12.24,12.24H20.29c-6.73,0-12.24-5.51-12.24-12.24v-59.6   c0-6.73,5.51-12.24,12.24-12.24h290.83c6.73,0,12.24,5.51,12.24,12.24V78.86z"
   id="path6" />
</g>
<g
   id="g14">
	<path
   d="M323.36,78.86c0,6.73-5.51,12.24-12.24,12.24H20.29c-6.73,0-12.24-5.51-12.24-12.24v-59.6c0-6.73,5.51-12.24,12.24-12.24   h290.83c6.73,0,12.24,5.51,12.24,12.24V78.86z"
   id="path10" />
	<path
   class="st2"
   d="M323.36,78.86c0,6.73-5.51,12.24-12.24,12.24H20.29c-6.73,0-12.24-5.51-12.24-12.24v-59.6   c0-6.73,5.51-12.24,12.24-12.24h290.83c6.73,0,12.24,5.51,12.24,12.24V78.86z"
   id="path12" />
</g>









<text
   xml:space="preserve"
   id="text247"
   style="font-size:48px;white-space:pre;shape-inside:url(#rect249);display:inline;fill:#ffffff"><tspan
     x="21.132812"
     y="64.038953"
     id="tspan504">T</tspan></text><text
   xml:space="preserve"
   id="text255"
   style="font-size:48px;white-space:pre;shape-inside:url(#rect257);display:inline;fill:#f9f9f9"
   transform="translate(28.818362,0.0787759)"><tspan
     x="21.132812"
     y="64.038953"
     id="tspan506">h</tspan></text><text
   xml:space="preserve"
   id="text261"
   style="font-size:48px;white-space:pre;shape-inside:url(#rect263);display:inline;fill:#f9f9f9"
   transform="translate(56.818362,0.0787759)"><tspan
     x="21.132812"
     y="64.038953"
     id="tspan508">e</tspan></text><text
   xml:space="preserve"
   id="text350"
   style="font-size:48px;white-space:pre;shape-inside:url(#rect352);display:inline;fill:#ff0000"
   transform="translate(116)"><tspan
     x="21.132812"
     y="64.038953"
     id="tspan510">i</tspan></text><text
   xml:space="preserve"
   id="text356"
   style="font-size:48px;white-space:pre;shape-inside:url(#rect358);display:inline;fill:#ff0000"
   transform="translate(86)"><tspan
     x="21.132812"
     y="64.038953"
     id="tspan512">B</tspan></text><text
   xml:space="preserve"
   id="text362"
   style="font-size:48px;white-space:pre;shape-inside:url(#rect364);display:inline;fill:#f9f9f9"
   transform="translate(156)"><tspan
     x="21.132812"
     y="64.038953"
     id="tspan514">P</tspan></text><text
   xml:space="preserve"
   id="text368"
   style="font-size:48px;white-space:pre;shape-inside:url(#rect370);display:inline;fill:#ff0000"
   transform="translate(128)"><tspan
     x="21.132812"
     y="64.038953"
     id="tspan516">g</tspan></text><text
   xml:space="preserve"
   id="text374"
   style="font-size:48px;white-space:pre;shape-inside:url(#rect376);display:inline;fill:#f9f9f9"
   transform="translate(268)"><tspan
     x="21.132812"
     y="64.038953"
     id="tspan518">e</tspan></text><text
   xml:space="preserve"
   id="text380"
   style="font-size:48px;white-space:pre;shape-inside:url(#rect382);display:inline;fill:#f9f9f9"
   transform="translate(240)"><tspan
     x="21.132812"
     y="64.038953"
     id="tspan520">n</tspan></text><text
   xml:space="preserve"
   id="text386"
   style="font-size:48px;white-space:pre;shape-inside:url(#rect388);display:inline;fill:#f9f9f9"
   transform="translate(212)"><tspan
     x="21.132812"
     y="64.038953"
     id="tspan522">o</tspan></text><text
   xml:space="preserve"
   id="text392"
   style="font-size:48px;white-space:pre;shape-inside:url(#rect394);display:inline;fill:#f9f9f9"
   transform="translate(184)"><tspan
     x="21.132812"
     y="64.038953"
     id="tspan524">h</tspan></text></svg>
