<?xml version="1.0"?>
<svg xmlns="http://www.w3.org/2000/svg" id="Layer_1" enable-background="new 0 0 511.449 511.449" height="512px" viewBox="0 0 511.449 511.449" width="512px"><g><path d="m436.508 74.941c-99.913-99.913-261.639-99.928-361.566 0-99.914 99.912-99.93 261.64 0 361.567 99.913 99.913 261.639 99.928 361.566 0 99.913-99.912 99.929-261.64 0-361.567zm-180.784 394.45c-117.816 0-213.667-95.851-213.667-213.667s95.851-213.666 213.667-213.666 213.667 95.851 213.667 213.667-95.85 213.666-213.667 213.666z" data-original="#000000" class="active-path" data-old_color="#000000" fill="#2968B5"/><path d="m251.522 298.058h46.869c11.598 0 21-9.402 21-21s-9.402-21-21-21h-50.559c-2.73-9.63-6.771-18.797-12.099-27.224-18.732-29.455-12.047-40.131-2.871-49.307 12.634-12.635 33.089-12.637 45.725 0 8.203 8.202 21.499 8.201 29.698 0 8.201-8.201 8.202-21.498.001-29.699-29.048-29.049-76.071-29.053-105.123 0-30.213 30.214-26.014 65.151-2.898 101.496.967 1.53 1.84 3.118 2.666 4.733h-11.206c-11.598 0-21 9.402-21 21s9.402 21 21 21h17.517c-2.398 16.603-11.711 38.791-26.176 45.338-9.017 4.081-13.96 13.901-11.866 23.574 2.078 9.603 10.567 16.558 20.552 16.558l106.667-.137c11.598-.015 20.987-9.429 20.973-21.027-.015-11.499-9.313-20.973-21.027-20.973l-59.185.076c6.74-13.412 10.942-28.512 12.342-43.408z" data-original="#000000" class="active-path" data-old_color="#000000" fill="#2968B5"/></g> </svg>
