<?xml version="1.0" encoding="utf-8"?>
<!-- Generator: Adobe Illustrator 25.4.1, SVG Export Plug-In . SVG Version: 6.00 Build 0)  -->
<svg version="1.1" id="Capa_1" xmlns="http://www.w3.org/2000/svg" xmlns:xlink="http://www.w3.org/1999/xlink" x="0px" y="0px"
	 viewBox="0 0 512 512" style="enable-background:new 0 0 512 512;" xml:space="preserve">
<style type="text/css">
	.st0{fill:#FFFFFF;stroke:#171714;stroke-width:0.1;stroke-miterlimit:10;}
	.st1{fill:#606060;}
	.st2{fill:#FFFFFF;}
</style>
<g>
	<path class="st0" d="M382.2,0H254.9H127.6C89.1,0,69.8,23,69.8,53.7v273.1c0,9.8,3.1,18.8,8.4,26.3c1.7,2.7,3.6,5.2,6,7.5
		L223,498.2c8.8,8.7,20.4,12.8,31.9,12.5c11.5,0.3,23.2-3.8,31.9-12.5l138.9-137.6c2.3-2.3,4.3-4.8,6-7.5c5.2-7.5,8.3-16.6,8.3-26.3
		V53.7C440,23,420.7,0,382.2,0z"/>
	<path class="st1" d="M387.8,8.5L254.9,8.4L122,8.5c-24.4,0-42.6,19.8-42.6,44.3V322c0,9.4,2.9,18.1,7.9,25.2
		c1.6,2.5,9.7,12.3,11.9,14.5L225,486.4c7.7,8.3,18.7,13.3,29.9,13.3c11.2,0,22.2-5,29.9-13.3l125.8-124.7
		c2.2-2.2,10.3-12,11.9-14.5c5-7.2,7.9-15.9,7.9-25.2V52.8C430.4,28.4,412.2,8.5,387.8,8.5"/>
	<path class="st2" d="M205.1,136.6h19.2c0.1-28.2,0.6-44.8,1.4-49.9c1.5-11.8,6.4-21.2,14.9-28.1c8.5-6.9,20.5-10.4,36-10.4
		c11.2,0,23.8,2.6,37.9,7.7v41c-7.8-2.2-14.1-3.4-19.2-3.4c-6.3,0-10.9,1.3-13.8,3.9c-2.1,2-3.2,6.1-3.2,12.2l-0.2,26.8h34.1v45.6
		h-34.1v169.1h-53.9V182.2h-19.2V136.6z"/>
</g>
</svg>
