<?xml version="1.0" encoding="utf-8"?>
<!-- Generator: Adobe Illustrator 25.4.1, SVG Export Plug-In . SVG Version: 6.00 Build 0)  -->
<svg version="1.1" id="_x33_" xmlns="http://www.w3.org/2000/svg" xmlns:xlink="http://www.w3.org/1999/xlink" x="0px" y="0px"
	 viewBox="0 0 256.5 249.2" style="enable-background:new 0 0 256.5 249.2;" xml:space="preserve">
<style type="text/css">
	.st0{fill:#606060;}
</style>
<g>
	<path class="st0" d="M22,143.3c1.7,0.3,2.4,1.4,1.8,3.4c-0.2,0.6-0.5,1.4-0.9,2.6c-0.5,1.2-0.8,2-0.9,2.4c-1.3-0.6-1.7-1.9-1.2-3.9
		C21.6,144.6,22,143.1,22,143.3L22,143.3z M24.5,167.2c-0.5-1.4-2.4-3-5.5-4.8c-2.8-1.5-4.1-3.5-4.1-6c1,0.3,2.5,1.7,4.8,4.4
		c1.8,2.3,3.5,2.8,4.9,1.6c-2.4-3.1-3.7-5.1-3.7-6c3.7-0.6,5.9-3.8,6.8-9.6c0.9-5.5,0.3-9.8-1.9-13c-3.4,0.7-5.5,3-6.5,7.1
		c-0.7,2.6-1,7-0.7,13.1c-8.1-3.9-11.8-5.9-10.8-6c-1.4,4.8-0.1,9.5,3.9,14.1C15.6,166.8,19.8,168.5,24.5,167.2L24.5,167.2z
		 M24.5,80.2c1.2,0.9,1.1,2.1-0.3,3.6c-2.6,2.9-3.7,4.1-3.4,3.5C22.8,88.6,24,86.3,24.5,80.2L24.5,80.2z M16,100.4
		c0-0.8-0.9-2.9-2.7-6.5c-1.3-2.7-1.2-4.9,0.4-6.7c0.7,0.7,1.1,2.7,1.3,5.9c0.2,2.8,0.9,4.5,2.2,4.9v-7.1
		c8.1-1.2,13.3-7.2,15.6-17.9c-4-0.1-7.3,1.4-9.7,4.6c-0.7,0.8-1.6,2.2-2.9,4.3c-1.2,1.9-2.2,3.3-3,4.3c0.2-1.6-0.1-3.2-0.9-5
		c-0.8-1.9-1.3-3.5-1.4-4.7c-2.1,0.4-3.7,1.8-4.8,4.3C9,83.1,8.5,85.9,8.6,89s0.8,5.8,2,7.9C11.9,99.3,13.8,100.4,16,100.4L16,100.4
		z M152,228.1c-2.2,1-5.7,1.9-10.4,2.7c-5.8,0.9-9.5,1.6-11.1,2c0.5,1.6,3,3.8,7.5,6.7c4.9,3.1,7.9,5.7,9.2,7.7
		c0.2-1.4,1.5-2,3.8-2.2c2.6-0.2,4.1-0.6,4.6-1.4c-2-1.4-5.6-3.2-10.8-5.3c-5.1-2-8.6-3.8-10.6-5.4
		C144.1,232.2,150.1,230.6,152,228.1L152,228.1z M201,197c-0.2,0.8-0.9,2.4-2.2,5.1c-1,2-1.4,3.9-1.4,5.7c3.1-1.4,5.5-4.1,7.1-8.1
		c1.7-4.3,1.7-8.4,0-12.2c-4.9,0.1-8.5,2.9-10.9,8.6c-2.2,5.5-2.1,10.3,0.3,14.1c-0.4,0.3-1.9,0.5-4.6,0.9c-1.9,0.3-2.8,1.2-2.6,2.7
		c1.5,0.3,4.1,0.3,7.8-0.1c3.2-0.3,5-0.3,5.4,0.1c-1.9,2.3-4.6,3.2-7.8,2.7c-3-0.4-5.6-1.7-7.8-3.9c1.5-1.8,2.5-3.9,3.1-6.1
		c0.8-2.9,0.6-5.2-0.7-7c-5.1,0.1-9.4,2.6-12.8,7.4c-3.5,4.9-4,9.2-1.6,12.9l3.6-8.1c1.8-3,3.8-3.9,6-2.7c-3,8.6-5,12.2-6,10.8
		c0.8-0.7,2.2-1.7,4.2-3c1.9-1.2,3.3-2.2,4.1-3c0.4,3,2.1,5.1,4.9,6.4c2.5,1.1,5.6,1.3,9.1,0.6c3.5-0.5,6.4-1.6,8.9-3.3
		c2.7-1.9,4.3-3.9,4.4-6.2c-1.1-1.4-4.1-2.2-9-2.3c-4.9-0.3-7.4-0.6-7.6-1.2c0.3-0.4,0.9-2.6,1.8-6.5
		C197.4,198.6,198.8,197.1,201,197L201,197z M215.3,193.5c2.2-2.1,3.8-5.7,4.6-10.8c1.1-5.7-0.1-9.2-3.5-10.7c-3.4,0.5-5.7,4-7,10.4
		c-1.4,6.5-0.2,10.6,3.5,12.2c0.6-1.1,0.8-3.6,0.5-7.4c-0.3-3,0.7-4.9,3-5.7C216.4,190.2,216,194.1,215.3,193.5L215.3,193.5z
		 M56.6,197c2,0.3,3.4,1.7,4,4.4c1.2,3.9,1.8,6,2,6.4c-1.4,1.1-2.5,0-3.5-3.2C57.5,199.7,56.6,197.2,56.6,197L56.6,197z M41.1,181.5
		c2.7,0,3.6,2.9,2.7,8.7c-0.3,2-0.7,3.1-1,3.1c-0.5,0-0.6-1.6-0.5-4.7c0-0.7-0.3-1.8-0.9-3.2C40.8,184.2,40.7,182.9,41.1,181.5
		L41.1,181.5z M72.2,213.8c-1.7,1.6-4.9,2.3-9.4,2.2c-4.6,0-6.2-1.1-5.1-3.4c1.2,0.8,3.4,1.3,6.6,1.5c3.5,0.1,5.6-0.4,6.5-1.5
		c-0.4-0.4-1.7-0.9-3.9-1.4c-1.7-0.5-2.8-1.2-3.2-2.2c1.6-4.8,1.4-9.4-0.7-13.9c-2.1-4.9-5.4-7.5-10-7.6c-1,1.4-1,6.2,0,14.3
		c-4.5,0.1-7.6,0-9.2-0.4c-2.8-0.6-4.5-2-5.1-4.4c1.1,0.8,3,1.5,5.7,1.9c3.1,0.6,5.1,1.1,6.1,1.7c0.3-1.7-0.5-3-2.2-3.6
		c-2.2-0.8-3.4-1.6-3.6-2.4c3.4-2,4.3-6.2,3-12.6c-1.4-6.4-4-9.7-7.8-10c-3,1.8-3.9,5.5-2.7,11.1c1.7,7.5,2.7,11,2.7,10.4
		c-2.7-1.1-6.7-1.4-11.9-1.2c-0.4,5.7,3,9.8,10,12.1c6.9,2.4,12.4,1.5,16.3-2.6c-0.1,1,0.8,2.4,2.6,4.2c1.5,1.5,1.8,2.5,0.9,3
		c-4.2,0-6.8,0.1-7.9,0.4c-2.5,0.6-3.8,2.1-3.9,4.4c1.4,4.1,6.5,6.4,15.1,7c3.6,0.3,6.5-0.1,8.6-1.1
		C71.9,218.4,72.8,216.4,72.2,213.8L72.2,213.8z M227.2,176.7c0-1.2-0.5-3.6-1.5-7.1c-0.6-2.2-0.1-4.2,1.5-6
		c0.9,0.5,1.3,2.4,1.1,5.5s0.2,4.9,1.3,5.3c1.4-4.3,2-8.2,1.8-11.7c-0.3-4.6-2.1-7.6-5.4-8.6c-3.4,2.2-4.9,6.2-4.4,12.2
		c0.4,5.4,1.9,9.6,4.4,12.9c-1.1,0.1-2.2,0.8-3.5,2.1c-1.3,1.4-1.3,2.2,0,2.6c6.5-3.7,10-5.2,10.8-4.7c-0.7,1.8-2.3,3.2-4.9,4.1
		c-0.7,0.3-1.9,0.6-3.5,0.9c-1.7,0.5-2.9,0.8-3.6,1c4.2,3.2,8.8,2.9,13.7-0.8c4.5-3.3,7.1-7.4,7.8-12.4c-2.5-1.2-5.2-1-8.2,0.5
		c-0.8,0.3-2.1,1.1-3.8,2.2C229.3,175.7,228.1,176.4,227.2,176.7L227.2,176.7z M224.8,55.1c-0.3-0.5-1.5-3.6-3.6-9.5
		C224,46.7,225.1,49.9,224.8,55.1L224.8,55.1z M165.1,14.5c-0.7-0.6-2.3-1.4-4.9-2.1c-2.3-0.8-3.8-1.6-4.6-2.6
		c2.9-0.1,5.4,0.7,7.7,2.4c0.7,0.5,1.6,1.3,2.7,2.4c1.3,1.1,2.2,1.8,2.8,2.3c0.5-0.1-1.9-0.1-7.3-0.1c-2.9,0-4.4,0.8-4.7,2.5
		c3,2.2,9.2,3.2,18.4,3.2c8.6,0,14,1.3,16.2,3.9c-1.1,0.2-3-0.1-5.9-0.9c-2-0.5-3.6-0.2-4.9,0.9c2.4,3.1,6,5.6,10.9,7.4
		c5.4,2,9.8,1.9,12.9-0.3c-0.1,1.4,0.9,2.8,3.2,4.3c2,1.3,2.5,2.2,1.7,2.8c-3.8-2-7-2.7-9.5-2.3c1.2,4.1,4,7.3,8.3,9.8
		c4.3,2.4,8.7,3.2,13.1,2.2c-0.1,2.1,0.5,3.8,2,5.2c0.3,0.5,1,1,1.9,1.6c1,0.7,1.6,1.2,2.1,1.6c1.6-4.7,1.2-9.3-1.3-13.9
		c-2.3-4.3-5.4-7.3-9.5-8.9c-0.3,2.3,0.2,5,1.3,8.3c0.9,2.5,0.8,4.1-0.1,4.9c-0.5-0.6-2.3-1.4-5.2-2.5c-2.4-0.8-3.8-2.1-4.3-3.5
		c1.1-0.1,2.9,0.7,5.2,2.2c2,1.3,3.4,1.4,4.3,0.3c-0.3-0.4-1.4-1.1-3.3-2.1c-1.4-0.8-2.4-1.7-2.7-2.7c1.2-4.5,0.2-8.7-3.1-12.6
		c-3.2-3.7-7.3-5.9-12.4-6.5c0.1,1.9,1,3.8,2.7,5.7c1.8,2,2.9,3.8,3.2,5c-0.1-0.1-2.2-0.2-6.2-0.4c-3.1-0.2-5-1.3-5.7-3.3
		c7.1-0.4,10.3,0,9.7,1.3c-0.6-0.6-1.9-1.2-3.8-1.7c-1.7-0.6-2.9-1.3-3.5-2c0.5-3.9-1.4-7.4-5.9-10.5c-4.1-3-8.9-4.6-14.4-4.9
		c0-1.1,2,1.4,6,7.2c-1.6-0.3-6.9-3.2-15.9-8.6c-6.9-4.2-13.2-4.9-18.7-2.2C156.3,12.5,163.5,14.8,165.1,14.5L165.1,14.5z
		 M37.5,50.4c3.8,0.9,7.9,0,12.1-2.7c4-2.5,6.7-5.6,8.2-9.2c-1.6-0.5-3.8-0.3-6.5,0.8c-2.3,1-3.8,1.1-4.1,0.4c1-3.5,1.6-5.6,1.8-6
		c0.9-2,2.3-3.2,4.1-3.5c0.2-0.5-0.8,1.1-3,4.4c-1.3,2-1.5,3.3-0.6,3.9c1.5-1.5,6.2-3,14.1-4.7c7.1-1.4,11.5-3.8,13.3-7.3
		c-1.1-1-3-1.2-5.5-0.5c-2.4,0.6-4.1,0.4-5.1-0.6c0.6-0.3,1.7-1.6,3.3-4.1c1.4-2.2,3.1-3.7,5.1-4.3c-0.5,1.1-1.4,2.2-3,3.5
		c-1.6,1.4-2.5,2.6-3,3.6c1.7-1,7.2-1.6,16.5-1.6c8.2,0,13.5-1.5,15.7-4.4C100,17.4,98,17,94.8,17c-3.1,0-5.1-0.5-5.9-1.4
		c1.9,0.5,3.9-0.5,5.9-3.1c1.7-2.3,3.8-2.9,6.1-1.6c-3.2,0.5-5.6,1.7-7.2,3.5c9.9-1.8,16.6-4.6,20.3-8.4c-5.1-0.9-10.7-0.3-17.1,2.1
		c-6.5,2.4-10,5.4-10.4,8.7c-1.2-0.2-3.1,0.4-5.8,1.6c-2.2,1.1-3.5,1.4-3.8,0.8c5.4-4.8,8.2-7.6,8.5-8.3c-6.1,0.6-11.1,2.2-15.1,4.9
		c-4.6,3.2-6.3,7.1-5.2,11.7c-1.6-0.2-3,0.1-4.5,1.1c-1.4,0.9-2.8,1.4-4,1.4c1.9-2.6,3.5-5.4,4.8-8.4c-5.3,0.3-9.7,2.8-13.3,7.6
		c-3.6,4.6-4.4,8.9-2.2,12.7c-3.5,1.9-5.5,3.4-6,4.8c1.1,0.2,2.9-0.6,5.2-2.2c2-1.3,3.4-1.3,4.3-0.1c-3.8,1.9-7,3.1-9.5,3.5
		c0-0.4-0.2-0.8-0.5-1.3c-0.5-0.5-0.7-0.8-0.7-1c1.6-4.7,2.4-7.5,2.4-8.4c-3.7-0.5-6.8,1.5-9.2,6c-2.2,4.4-3.1,9.6-2.7,15.5
		c1.9-0.5,3.5-1.6,5-3.5C36.8,51.5,38,49.9,37.5,50.4L37.5,50.4z M124.6,231.6c-2.4,0.4-5.9,0.1-10.6-1c-4-1-6.9-1-8.4-0.1
		c1.3,0.5,3.9,1.1,7.8,1.6c3.6,0.5,6.2,1.2,7.6,2c-10.8,4.1-18,7.6-21.4,10.6c1.6-0.3,3.2-0.1,4.9,0.4c1.9,0.5,3.4,0.9,4.6,0.9
		c-0.2,0.2,5.4-3.8,16.8-11.9C123.5,234.2,123.1,233.3,124.6,231.6L124.6,231.6z M162.8,222.1c1.1,1.1,3.3,1.8,6.9,2.1
		c3.9,0.3,6.4,0.8,7.4,1.6c-0.9,0.2-0.9,1,0,2.4c-2.7,0-5.9-0.7-9.2-2.1c-4-1.5-6.8-2.4-8.6-2.7c0,2.6,1.4,4.7,4.3,6.4
		c2.6,1.4,5.8,2.2,9.6,2.4s7.2-0.3,10.2-1.3c3.2-1.2,5.1-2.9,5.7-5.1c-2.1-2.4-6-4.1-11.7-4.8C171.8,220.3,167,220.6,162.8,222.1
		L162.8,222.1z M147.3,225.7c5.9-0.9,10.6-2.9,14.1-6c4.2-3.6,5.4-7.9,3.8-13.1c-6.1,1-11.3,3.3-15.7,6.8c-5.2,4-6.7,8.1-4.5,12.3
		c-0.1,0.1,2.3-2.4,7-7.7c2.9-3.3,5.4-4.7,7.4-4.3c0.3,1.8-1.3,3.8-4.7,5.9C150.5,222.2,148.1,224.3,147.3,225.7L147.3,225.7z
		 M111.4,225.7c1.9-0.2,2.7-1,2.5-2.4c-1.1-4.9-4-8.8-8.7-11.8c-4.5-2.9-9.2-4.1-14-3.7c-0.1,5.5,2,9.9,6.2,13.2
		c4,3.2,8.3,4.4,12.9,3.5c-0.8-0.6-2.3-1.5-4.4-2.8c-2.2-1.2-3.7-2.1-4.6-2.7c-3.1-2.2-4.1-4.4-2.9-6.4
		C104.8,217,109.1,221.4,111.4,225.7L111.4,225.7z M80.5,224.5c7.3,0.5,12.1-0.7,14.3-3.5c-5.7-1.6-8.5-2.1-8.4-1.2
		c1-5.1-0.2-9.6-3.3-13.7c-3.4-4.3-7.9-6.5-13.4-6.6c-0.6,10.3,3.8,17,13.1,20.3c-0.2-1.8-1.6-4-4.3-6.8c-2.3-2.4-3.3-4.3-2.9-5.2
		c1.6-0.1,3.2,1.4,5.1,4.3c0.4,0.6,1.2,1.9,2.4,3.9c0.9,1.7,1.6,3,2.2,3.8c0.7-0.3-2.7,0.3-10,1.9c-3.8,0.9-6,2.6-6.7,5.3
		c2.4,4,7.9,5.7,16.4,5c8.7-0.7,13.2-3.6,13.5-8.7c0.2,0-3,1-9.4,3C85.3,227.5,82.5,226.9,80.5,224.5L80.5,224.5z M205.7,200.7
		c1.3,0,3.8-0.7,7.4-1.9c2.9-1.1,4.9-1.2,5.7-0.4c-2.2,2.9-7,4.1-14.4,3.5c3.2,4.3,8.1,5.1,14.8,2.5c6.6-2.5,10-6.1,10.3-10.8
		c-4.3-1.6-8.8-1.5-13.8,0.3C211.3,195.3,207.9,197.7,205.7,200.7L205.7,200.7z M24.5,178c5.2,3,8.3,4.5,9.5,4.7
		c-1.6,1.6-3.7,1.8-6,0.4C25.7,181.7,24.6,180,24.5,178L24.5,178z M30.7,176.7c-0.5,0.1-0.6,0.1-0.4,0c0,0.1,0-0.2,0-0.9
		c-2.4-4.7-2-8.8,1.3-12.2c0.3,2,0.1,4.1-0.4,6.4c-0.6,2.5-1,4.5-0.9,5.8C30.4,176.1,30.6,176.4,30.7,176.7
		c3.5-0.8,5.1-4.6,4.9-11.6c-0.2-6.9-2-10.6-5.4-11.1c-3,1.4-4.5,4.6-4.6,9.6c-0.2,4.3,0.6,8.3,2.2,11.8c-0.7-0.2-1.7-0.8-3-1.6
		c-1.6-1-2.7-1.7-3.3-1.9c-2.7-1.4-4.9-1.4-6.8,0c1.7,10.9,8.9,16.1,21.4,15.5C36.2,186.8,34.3,183.2,30.7,176.7L30.7,176.7z
		 M233.2,143.3c1.6,0.3,2.6,1.4,3,3.6c0.1,0.6,0.2,1.6,0.3,3s0.2,2.4,0.3,3c-1.5-1.3-2.5-2.6-2.7-4.2
		C233.4,145.2,233.1,143.3,233.2,143.3L233.2,143.3z M236.7,155.3c2.4-2.9,3.1-6.9,2-12.2c-1.2-5.3-3.5-8.3-6.8-9.2
		c-2.5,3.1-3.3,7.7-2.2,13.7c1,6.1,3.4,9.5,7,10.1c-1,0.3-2,1.2-2.8,2.9c-1,1.6-0.8,2.7,0.5,3.1c0.7-0.3,2.2-1.6,4.4-4
		c1.8-2,3.1-2.6,3.9-2c-0.6,1.9-3.8,4.3-9.5,7.3c-0.1,1.1,0.3,2.3,1.2,3.5c10.7-3.4,15.9-10.1,15.5-20.3c-2.7-0.3-5.1,0.8-7.2,3
		C240.5,153.6,238.5,155,236.7,155.3L236.7,155.3z M241.5,133.9c-0.1-0.4-1.1-2.4-3.2-6.1c-1.4-2.5-1.5-4.4-0.4-5.9
		c0.7,0.8,1.4,2.5,2.2,5.1c0.7,2.2,1.6,3.8,2.6,4.5c-0.1-10.9-3.2-16.9-9.5-17.9c-2,4.9-1.1,10.2,2.5,15.9c4.1,6.3,6,10.6,5.8,12.7
		c3-5,5.4-7.8,7.2-8.3c-0.3,2.1-1.6,4.1-4,6.1c-2.5,2.2-4,4.1-4.3,5.9c9.1-1.2,13.5-8.3,13.1-21.5c-2.8,0-5.1,1.2-7,3.8
		C244,131.4,242.4,133.3,241.5,133.9L241.5,133.9z M236.7,101.6c1.2,0.5,2.4,1.9,3.7,4.2c1.1,2.4,2.3,3.8,3.5,4.2
		c-0.9,0.8-2.4,0.1-4.2-2.1S236.9,103.7,236.7,101.6L236.7,101.6z M230.7,93.3c-0.5,5.9,1.4,10.9,5.6,15.2c4.7,4.7,7.2,8.4,7.6,11.1
		c-0.2,0.5,0.3-1.3,1.5-5.1c0.6-1.9,1.7-3,3.3-3.2c0,2.2-0.9,4.3-2.6,6.4c-2,2.3-3.1,4.1-3.4,5.4c1.8,0.6,3.7,0,5.5-1.8
		c1.6-1.6,2.9-4,3.9-7c2.3-7.2,1.5-12.2-2.2-14.9c-0.9,0.8-2.9,4-6,9.5c-0.5-1-1.1-2.7-2-5.1c-0.8-2.2-1.6-4-2.2-5.1
		C237.8,95.1,234.8,93.3,230.7,93.3L230.7,93.3z M18.5,121.9c2.1,0.8,2.4,2.6,0.9,5.4c-1.3,2.3-2.7,4.1-4.6,5.4
		c-0.5,0.3-0.1-0.7,1.1-3.1C17.8,126.1,18.6,123.6,18.5,121.9L18.5,121.9z M19.6,100.4c1.5,1.6,1.4,3.5-0.5,5.7
		c-2.9,3.4-4.3,5.1-4.3,5.1c-0.7-1-0.3-2.6,1.4-4.9C18.4,103.4,19.5,101.5,19.6,100.4L19.6,100.4z M17.2,145.8
		c0-1.6-1.6-3.7-4.8-6.1c-2.7-2.2-3.5-4.1-2.3-5.9c0.8,0.6,2,2.1,3.4,4.4c1.2,2.1,2.5,3.4,3.8,3.8c-0.1,0.7-0.9-1.7-2.3-7.1
		c4.1-0.5,7-3.3,8.5-8.3c1.4-3.9,1.7-8.3,1.1-13.1c-2.6-0.3-4.7,0.8-6.1,3c-2.2,3.5-3.3,5.3-3.5,5.3c-2.8-3.4-4.3-5.2-4.5-5.4
		c-1.5-2.6-1.7-4.8-0.3-6.5c1.8,5.8,3.4,9,4.8,9.6c0.4-3.3,2.7-7.3,6.8-12.2c3.8-4.4,5.4-9.1,5.1-14c-4.1-0.2-7.3,1.7-9.3,5.6
		c-3.7,7-5.3,10.3-5,9.9c-0.8-4.9-2.7-8.1-6-9.5c-2.7,4.2-3.2,9.3-1.4,15.2c1.8,5.9,5.1,9.2,9.7,9.9c-0.3,0.4-0.6,1.7-0.9,3.9
		c-0.3,1.6-0.7,2.7-1.4,3.2c-2.1-3.5-3-5.2-2.9-4.9c-1.3-1.6-3.1-2.4-5.4-2.2C3,129.3,3.5,134,6,138.5
		C8.4,143.1,12.2,145.5,17.2,145.8L17.2,145.8z M233.2,84.9c0-1.9-0.8-3.1-2.5-3.6c2.4-0.4,4.8,1.2,7.3,5c0.9,1.2,1,1.8,0.3,1.8
		C237.5,88.1,235.9,87,233.2,84.9L233.2,84.9z M224.8,73c-0.2,5.3,2.2,9.9,7.1,13.6c5.6,4.4,8.8,8.3,9.6,11.4
		c0.2-0.8,0.4-2.7,0.8-5.7c0.3-2.5,0.8-4.2,1.6-5.1c0.9,1.7,0.9,3.7,0.1,6c-1.6,4-2.4,6.4-2.5,7.1c4.4-0.7,6.8-4.5,6.9-11.4
		c0.1-6.8-1.8-11-5.7-12.5c-0.7,0.8-1.3,2.4-1.7,4.9c-0.5,2.4-1.2,3.9-1.9,4.7C235.5,78.1,230.7,73.7,224.8,73L224.8,73z
		 M234.4,64.7c1.5,0.1,2.3,1.3,2.5,3.5c0,0.5-0.1,1.5-0.2,3c-0.1,1.4-0.1,2.4,0,3C234.9,72.5,234.1,69.4,234.4,64.7L234.4,64.7z
		 M230.7,64.7c-6.2-8.1-11.7-11.2-16.6-9.6c1.4,4.3,3.9,8,7.7,11c3.7,2.9,7.6,4.3,11.4,4.6c-0.7,1.8-0.4,3.2,0.9,4.4
		c1.4,1.1,1.8,2.4,1.5,3.9c4.2-1.7,5.7-6,4.4-12.7c-1.4-6.7-4.1-10.5-8-11.2c-1,1.7-1.3,4.3-0.8,7.8c0.5,3.1,0.4,4.9-0.4,5.4
		c-0.2-0.3-1.9-1.4-5.2-3.4c-2.2-1.5-2.9-2.7-1.9-3.8C229.9,61.5,232.2,62.6,230.7,64.7L230.7,64.7z M22,64.7c0.9,0.4,1,1.8,0.4,4.2
		c-0.7,3-0.8,5.1-0.4,6.5C19.9,73.5,19.9,70,22,64.7L22,64.7z M20.8,79c0.3-0.5,0.7-1.2,1.3-1.9c0.7-0.9,1.1-1.5,1.3-1.9
		c1-1.6,1.4-3.5,1.1-5.7c3.9,1.1,8-0.3,12.3-4.3c4.3-3.8,6.1-7.6,5.4-11.2c-3.6,0.8-7,2.3-10,4.6c-3.4,2.4-4.9,4.9-4.3,7.4
		c5.5-2.1,7.9-3.7,7.1-4.9c0.3-0.8-2.8,1.6-9.5,7.2c0.5-0.7,0.6-2.5,0.1-5.4c-0.4-3.5-0.5-6-0.1-7.8c-4.1,0.3-6.8,3.8-8.1,10.5
		C16.1,72.1,17.3,76.7,20.8,79L20.8,79z"/>
</g>
<g>
	<path class="st0" d="M123.2,144.3H63.1v-8.8c1.2-1.4,2.7-2.8,4.8-4.5c2.1-1.7,4.5-3.5,7.3-5.3c1.7-1.2,3.8-2.4,6.2-3.8
		c2.4-1.4,5.1-2.9,8.2-4.5c3.4-1.8,6-3.5,7.9-4.8c1.8-1.4,3.5-3,5-5c0.9-1.3,1.8-3,2.4-5s0.9-4.8,0.9-8.5c0-5.3-1.5-9.3-4.3-11.8
		s-6.6-3.8-11.1-3.8c-2.8,0-5.3,0.5-8,1.7c-2.5,1-4.3,2.6-5.6,4.5c0.3,1.4,0.6,3,1.2,4.9c0.4,1.9,0.7,3.8,0.7,5.6c0,1.6-0.7,3-2,4.4
		c-1.4,1.3-3.4,1.9-6.1,1.9c-2.1,0-3.8-0.7-4.9-2.2s-1.8-3.5-1.8-5.9c0-2.3,0.6-4.6,2-6.9c1.3-2.3,3.1-4.5,5.6-6.5
		c2.3-1.9,5.2-3.5,8.7-4.7s7.2-1.8,11.2-1.8c8.8,0,15.7,2,20.8,5.9s7.7,9.1,7.7,15.7c0,3.1-0.4,6-1.4,8.6c-0.9,2.6-2.4,4.8-4.5,6.8
		c-2.2,2.2-4.9,4.1-8,5.6c-3,1.6-7.6,3.8-13.9,6.6c-3.8,1.7-7.2,3.4-10.5,5.2c-3.1,1.8-5.9,3.6-7.9,5.3H123v11.2L123.2,144.3
		L123.2,144.3z"/>
</g>
<g>
	<path class="st0" d="M194.8,82l-44.4,85.7h-7.8l41.8-79.2h-24.5c-3.6,0-6.4,0-8.5,0.1c-2,0.1-3.9,0.5-5.6,1.2
		c-1.3,0.5-2.4,1.9-3.5,4.1c-1,2.2-1.8,5.1-2.3,8.5h-3.8V77.9h58.6L194.8,82L194.8,82z"/>
</g>
</svg>
